<?xml version="1.0" encoding="utf-8"?>
<!-- Generator: Adobe Illustrator 16.0.0, SVG Export Plug-In . SVG Version: 6.00 Build 0)  -->
<!DOCTYPE svg PUBLIC "-//W3C//DTD SVG 1.1//EN" "http://www.w3.org/Graphics/SVG/1.1/DTD/svg11.dtd">
<svg version="1.1" id="Layer_1" xmlns="http://www.w3.org/2000/svg" xmlns:xlink="http://www.w3.org/1999/xlink" x="0px" y="0px"
	 width="156.5px" height="89px" viewBox="0 0 156.5 89" enable-background="new 0 0 156.5 89" xml:space="preserve">
<g>
	<g>
		<g>
			<polygon fill="#FFFFFF" points="121.011,13.036 116.454,6.751 117.644,13.036 			"/>
			<polygon fill="#FFFFFF" points="113.374,34.864 119.31,38.771 119.011,33.426 			"/>
			<polygon fill="#FFFFFF" points="86.439,34.07 99.928,28.16 88.809,23.543 			"/>
			<polygon fill="#FFFFFF" points="97.117,20.049 105.834,7.986 92.817,9.532 			"/>
			<polygon fill="#FFFFFF" points="56.416,41.08 62.045,32.318 36.879,41.08 			"/>
			<polygon fill="#FFFFFF" points="48.364,23.968 25.446,34.07 60.171,30.531 			"/>
			<polygon fill="#FFFFFF" points="83.639,17.225 65.449,13.036 73.844,25.355 			"/>
			<polygon fill="#FFFFFF" points="77.214,43.577 86.065,35.009 70.303,41.08 			"/>
			<polygon fill="#FFFFFF" points="113.074,13.036 108.293,13.036 113.468,14.211 			"/>
			<polygon fill="#FFFFFF" points="85.36,17.636 92.817,9.532 92.326,4.713 			"/>
			<polygon fill="#FFFFFF" points="116.454,6.751 105.834,7.986 117.644,13.036 			"/>
			<polygon fill="#FFFFFF" points="119.021,31.263 121.235,25.275 116.287,28.864 			"/>
		</g>
		<g>
			<polygon fill="#FFFFFF" points="59.276,41.08 68.966,42.834 63.928,34.07 			"/>
			<polygon fill="#FFFFFF" points="96.075,39.331 101.459,28.864 83.631,41.08 			"/>
			<polygon fill="#FFFFFF" points="64.534,18.225 52.522,23.552 71.43,27.057 			"/>
			<polygon fill="#FFFFFF" points="119.021,31.263 112.022,31.75 119.011,33.426 			"/>
			<polygon fill="#FFFFFF" points="117.11,18.295 121.26,25.306 120.778,16.517 115.539,16.517 113.468,14.211 103.549,17.247 
				112.568,21.801 			"/>
			<polygon fill="#FFFFFF" points="110.111,2.521 105.834,7.986 116.454,6.751 			"/>
			<polygon fill="#FFFFFF" points="91.505,13.074 88.849,21.31 94.613,20.14 			"/>
			<polygon fill="#FFFFFF" points="84.993,32.489 87.238,18.812 72.55,29.353 			"/>
			<polygon fill="#FFFFFF" points="88.64,6.026 70.303,12.919 82.282,14.826 			"/>
			<polygon fill="#FFFFFF" points="110.109,2.521 92.326,4.713 105.834,7.986 			"/>
			<polygon fill="#FFFFFF" points="117.591,40.149 113.481,43.447 119.025,42.358 119.31,38.771 116.202,36.728 			"/>
			<polygon fill="#FFFFFF" points="69.587,38.327 83.639,34.07 62.653,28.864 			"/>
			<polygon fill="#FFFFFF" points="33.15,41.08 50.569,33.033 8.89,39.327 			"/>
		</g>
	</g>
	<g>
		<path fill="#FFFFFF" d="M54.532,51.792l-3.055,17.424c-0.109,0.556-0.297,0.777-1.182,0.993c-2.395,0.596-5.19,0.96-7.55,0.96
			c-5.008,0-7.368-2.983-7.368-7.147c0-0.66,0.075-1.36,0.188-2.099l0.479-2.833c1.067-6.375,4.529-9.245,10.46-9.245
			c2.357,0,5.043,0.366,7.22,0.955c0.664,0.183,0.846,0.367,0.846,0.701C54.57,51.572,54.57,51.685,54.532,51.792z M45.806,53.822
			c-3.173,0-4.347,2.062-4.901,5.268l-0.479,2.833c-0.147,0.809-0.222,1.51-0.222,2.136c0,2.028,0.848,3.134,3.245,3.134
			c1.324,0,2.833-0.111,3.569-0.262l2.248-12.857C48.602,53.931,47.13,53.822,45.806,53.822z"/>
		<path fill="#FFFFFF" d="M96.401,57.724l-2.175,12.375c-0.072,0.407-0.441,0.776-0.843,0.776h-3.469
			c-0.369,0-0.549-0.296-0.549-0.627c0-0.039,0-0.108,0-0.148l2.247-12.74c0.075-0.48,0.147-0.925,0.147-1.367
			c0-1.177-0.481-2.098-2.287-2.098h-2.058c-2.143,0-2.656,0.921-3.098,3.465l-2.25,12.74c-0.07,0.407-0.439,0.776-0.843,0.776
			h-3.467c-0.364,0-0.546-0.296-0.546-0.627c0-0.039,0-0.108,0-0.148l2.245-12.74c0.998-5.6,3.095-7.515,8.695-7.515h1.913
			c4.203,0,6.482,2.686,6.482,6.257C96.546,56.616,96.508,57.174,96.401,57.724z"/>
		<path fill="#FFFFFF" d="M117.661,59.496l-0.292,1.764c-0.11,0.591-0.367,0.92-0.881,0.92H104.48
			c-0.072,0.516-0.183,0.998-0.183,1.514c0,1.986,1.03,3.311,3.754,3.311c2.691,0,5.23-0.252,6.812-0.403c0.04,0,0.115,0,0.149,0
			c0.297,0,0.557,0.071,0.557,0.403c0,0.037,0,0.116,0,0.153l-0.444,2.426c-0.112,0.589-0.222,0.849-0.918,0.958
			c-2.472,0.445-4.093,0.626-7.407,0.626c-3.278,0-7.255-1.841-7.255-7.405c0-0.664,0.035-1.434,0.184-2.204l0.407-2.288
			c1.211-6.886,4.86-9.428,10.498-9.428c4.896,0,7.22,3.24,7.22,7.549C117.853,58.058,117.778,58.792,117.661,59.496z
			 M109.895,54.04c-2.946,0-4.31,1.99-4.789,4.679h7.812c0.07-0.478,0.147-0.922,0.147-1.399
			C113.064,55.183,111.922,54.04,109.895,54.04z"/>
		<path fill="#FFFFFF" d="M134.03,50.835l-0.366,2.175c-0.075,0.404-0.481,0.735-0.886,0.735h-5.192l-2.098,11.899
			c-0.037,0.254-0.074,0.477-0.074,0.661c0,0.888,0.553,1.071,2.025,1.071h2.911c0.33,0,0.664,0.109,0.664,0.442
			c0,0.032,0,0.072,0,0.108l-0.404,2.282c-0.075,0.37-0.337,0.596-0.813,0.666c-0.917,0.147-2.799,0.294-4.345,0.294
			c-2.803,0-4.976-1.213-4.976-4.237c0-0.404,0.04-0.811,0.114-1.287l3.277-18.566c0.075-0.408,0.439-0.663,0.846-0.737l3.536-0.59
			c0.04,0,0.072,0,0.112,0c0.332,0,0.517,0.298,0.517,0.627c0,0.037,0,0.076,0,0.113l-0.664,3.609h5.193
			c0.366,0,0.623,0.294,0.623,0.626c0,0.037,0,0.037,0,0.072V50.835z"/>
		<path fill="#FFFFFF" d="M152.898,59.013l-0.554,2.985c-1.14,6.079-4.604,9.171-10.388,9.171c-5.011,0-7.363-3.537-7.363-7.405
			c0-0.586,0.033-1.177,0.145-1.766l0.551-2.985c1.18-6.408,4.641-9.168,10.425-9.168c5.045,0,7.365,3.385,7.365,7.252
			C153.08,57.724,153.005,58.387,152.898,59.013z M144.979,54.04c-2.247,0-4.163,1.327-4.824,4.973l-0.554,2.985
			c-0.107,0.589-0.147,1.144-0.147,1.621c0,2.174,1.065,3.353,3.24,3.353c2.581,0,4.163-1.549,4.789-4.974l0.554-2.985
			c0.107-0.588,0.147-1.141,0.147-1.619C148.184,55.221,147.149,54.04,144.979,54.04z"/>
		<path fill="#FFFFFF" d="M74.607,50.299c-1.893-0.234-4.484-0.455-6.838-0.455c-5.932,0-9.281,2.354-10.461,9.245l-0.479,2.833
			c-0.149,0.809-0.187,1.551-0.187,2.25c0,4.969,3.352,6.959,7.627,6.959c0.322,0,0.708-0.02,1.112-0.055
			c2.015-0.111,4.205-0.439,6.131-0.913c0.887-0.219,1.072-0.443,1.182-0.994c0,0,1.279-7.144,1.279-7.514
			c0-0.312-0.209-0.558-0.556-0.558h-3.125c-0.384,0-0.734,0.314-0.801,0.699l-0.871,5.044c-0.154,0.022-0.414,0.066-0.441,0.066
			c-1.065,0.146-2.611,0.285-3.469,0.285c-2.466,0-3.277-0.998-3.277-2.953c0-0.658,0.107-1.434,0.257-2.317l0.479-2.833
			c0.586-3.538,1.881-5.268,4.901-5.268c1.08,0,5.504,0.3,7.108,0.414c0.367,0.022,0.611-0.168,0.721-0.56
			c0.102-0.396,0.531-2.453,0.559-2.643C75.523,50.598,75.176,50.368,74.607,50.299z"/>
		<path fill="#FFFFFF" d="M32.11,57.252l-2.247,12.862c-0.07,0.405-0.441,0.777-0.846,0.777h-3.464
			c-0.369,0-0.551-0.298-0.551-0.629c0-0.039,0-0.112,0-0.148l2.319-13.231c0.075-0.479,0.148-0.884,0.148-1.25
			c0-1.107-0.512-1.733-2.21-1.733h-0.885c-2.137,0-2.579,0.923-2.946,2.983l-2.322,13.231c-0.075,0.405-0.441,0.777-0.848,0.777
			h-3.499c-0.369,0-0.554-0.298-0.554-0.629c0-0.039,0-0.112,0-0.148l2.319-13.231c0.077-0.438,0.15-0.884,0.15-1.25
			c0-0.998-0.444-1.733-2.068-1.733h-0.878c-1.701,0-2.656,0.483-3.1,2.983L8.309,70.114c-0.075,0.405-0.444,0.777-0.848,0.777
			H3.997c-0.367,0-0.554-0.298-0.554-0.629c0-0.039,0-0.112,0-0.148l2.325-13.231c0.92-5.268,4.016-7.036,8.699-7.036h0.878
			c2.103,0,3.611,0.516,4.572,1.439c1.29-0.995,3.243-1.439,5.195-1.439h0.885c4.315,0,6.3,1.993,6.3,5.454
			C32.297,55.928,32.223,56.556,32.11,57.252z"/>
	</g>
	<g>
		<path fill="#FFFFFF" d="M95.271,76.15h5.778l-0.205,1.184h-4.392l-0.422,2.45h4.071L99.9,80.966h-4.088l-0.489,2.786h4.407
			l-0.201,1.184h-5.812L95.271,76.15z"/>
		<path fill="#FFFFFF" d="M104.544,76.15h1.402l-1.334,7.553h4.172l-0.202,1.233h-5.592L104.544,76.15z"/>
		<path fill="#FFFFFF" d="M113.242,76.15h5.776l-0.202,1.184h-4.392l-0.421,2.45h4.07l-0.202,1.183h-4.09l-0.489,2.786h4.41
			l-0.202,1.184h-5.811L113.242,76.15z"/>
		<path fill="#FFFFFF" d="M123.56,77.756l-1.267,7.179h-1.335l1.537-8.786h1.791l2.788,7.248l1.285-7.248h1.352l-1.539,8.786h-1.806
			L123.56,77.756z"/>
		<path fill="#FFFFFF" d="M132.139,83.093c0-0.202,0.032-0.438,0.068-0.641l0.693-3.938c0.354-1.958,1.419-2.533,3.766-2.533
			c0.744,0,1.607,0.101,2.399,0.32l-0.219,1.098c-0.761-0.136-1.656-0.235-2.297-0.235c-1.504,0-2.062,0.32-2.282,1.537
			l-0.658,3.733c-0.017,0.102-0.05,0.338-0.05,0.524c0,0.744,0.457,0.962,1.823,0.962c0.711,0,1.454-0.085,2.282-0.237l0.067,1.115
			c-0.828,0.187-1.724,0.304-2.569,0.304C133.035,85.104,132.139,84.412,132.139,83.093z"/>
		<path fill="#FFFFFF" d="M140.872,82.84c0-0.186,0.017-0.388,0.05-0.591l0.626-3.566c0.337-1.908,1.352-2.702,4.07-2.702
			c2.078,0,3.093,1.081,3.093,2.45c0,0.185-0.018,0.354-0.053,0.54l-0.591,3.378c-0.304,1.706-1.065,2.753-4.053,2.753
			C141.749,85.104,140.872,84.159,140.872,82.84z M147.273,78.871c0.033-0.152,0.05-0.304,0.05-0.439
			c0-0.845-0.574-1.267-1.925-1.267c-1.741,0-2.265,0.473-2.484,1.706l-0.591,3.378c-0.032,0.186-0.032,0.388-0.032,0.456
			c0,0.777,0.457,1.216,1.925,1.216c1.519,0,2.248-0.456,2.432-1.503L147.273,78.871z"/>
	</g>
</g>
</svg>
